<?xml version="1.0" encoding="UTF-8"?>
<!DOCTYPE svg PUBLIC "-//W3C//DTD SVG 1.1//EN" "http://www.w3.org/Graphics/SVG/1.1/DTD/svg11.dtd">
<!-- Creator: CorelDRAW -->
<svg xmlns="http://www.w3.org/2000/svg" xml:space="preserve" width="1.71729in" height="1.71729in" version="1.1" style="shape-rendering:geometricPrecision; text-rendering:geometricPrecision; image-rendering:optimizeQuality; fill-rule:evenodd; clip-rule:evenodd"
viewBox="0 0 63.4 63.4"
 xmlns:xlink="http://www.w3.org/1999/xlink"
 xmlns:xodm="http://www.corel.com/coreldraw/odm/2003">
 <defs>
  <style type="text/css">
   <![CDATA[
    .fil2 {fill:#FEFEFE}
    .fil0 {fill:#FF5A0E}
    .fil1 {fill:#FEFEFE;fill-rule:nonzero}
   ]]>
  </style>
 </defs>
 <g id="Layer_x0020_1">
  <metadata id="CorelCorpID_0Corel-Layer"/>
  <g id="_2115679533056">
   <rect class="fil0" x="-0" y="-0" width="63.4" height="63.4" rx="7.7" ry="7.7"/>
   <g>
    <path class="fil1" d="M19.09 20.1c-0.27,-0.12 -0.39,-0.44 -0.26,-0.71 0.12,-0.27 0.44,-0.39 0.71,-0.26l2.65 1.22c0.27,0.12 0.39,0.44 0.26,0.71 -0.12,0.27 -0.44,0.39 -0.71,0.26l-2.65 -1.22z"/>
    <path class="fil1" d="M22.88 14.29c-0.18,-0.24 -0.13,-0.57 0.11,-0.75 0.24,-0.18 0.57,-0.13 0.75,0.11l1.74 2.34c0.18,0.24 0.13,0.57 -0.11,0.75 -0.24,0.18 -0.57,0.13 -0.75,-0.11l-1.74 -2.34z"/>
    <path class="fil1" d="M40.11 13.66c0.18,-0.24 0.51,-0.29 0.75,-0.11 0.24,0.18 0.29,0.51 0.11,0.75l-1.74 2.34c-0.18,0.24 -0.51,0.29 -0.75,0.11 -0.24,-0.18 -0.29,-0.51 -0.11,-0.75l1.74 -2.34z"/>
    <path class="fil1" d="M43.86 19.12c0.27,-0.12 0.59,-0 0.71,0.26 0.12,0.27 0,0.59 -0.26,0.71l-2.65 1.22c-0.27,0.12 -0.59,0 -0.71,-0.26 -0.12,-0.27 -0,-0.59 0.26,-0.71l2.65 -1.22z"/>
    <path class="fil1" d="M32.53 14.19c0,0.3 -0.24,0.54 -0.54,0.54 -0.3,0 -0.54,-0.24 -0.54,-0.54l0 -2.65c0,-0.3 0.24,-0.54 0.54,-0.54 0.3,0 0.54,0.24 0.54,0.54l0 2.65z"/>
    <path class="fil2" d="M31.7 18.64c5.41,0 9.79,4.39 9.79,9.79 0,5.31 -3.79,6.64 -4.99,12 -0.06,5.3 -9.62,5.26 -9.63,0 -1.15,-5.56 -4.97,-6.33 -4.97,-12 0,-5.41 4.39,-9.79 9.79,-9.79z"/>
    <path class="fil1" d="M29.95 45.07c-0.21,0.63 -0.08,0.91 0.24,1.02 0.49,0.17 1.35,0.1 2.23,0.03 0.67,-0.05 1.35,-0.11 1.95,-0.06 1.18,0.09 2.02,0.51 1.93,1.85 -0.1,1.42 -1.95,1.34 -3.77,1.26 -1.35,-0.06 -2.68,-0.12 -2.7,0.38 -0,0.07 0.29,0.11 0.72,0.13 0.44,0.02 1,-0.01 1.55,-0.04 1.29,-0.07 2.61,-0.14 3.09,0.44 0.59,0.7 0.51,1.23 0.03,1.63 -0.81,0.69 -3.19,0.69 -4.53,0.69l0 0 -0.11 0 0 -0.87 0.11 0 0 0c1.23,0 3.4,0 3.97,-0.48 0.08,-0.06 0.05,-0.19 -0.14,-0.41 -0.21,-0.25 -1.3,-0.19 -2.39,-0.13 -0.58,0.03 -1.15,0.06 -1.63,0.04 -0.93,-0.04 -1.58,-0.29 -1.54,-1.03 0.06,-1.36 1.82,-1.29 3.61,-1.21 1.4,0.06 2.83,0.12 2.87,-0.46 0.05,-0.66 -0.44,-0.88 -1.12,-0.93 -0.53,-0.04 -1.18,0.01 -1.82,0.06 -0.96,0.08 -1.9,0.15 -2.57,-0.07 -0.81,-0.27 -1.2,-0.87 -0.78,-2.11l0.82 0.27z"/>
   </g>
  </g>
 </g>
</svg>
