<?xml version="1.0" encoding="UTF-8"?>
<!DOCTYPE svg PUBLIC "-//W3C//DTD SVG 1.1//EN" "http://www.w3.org/Graphics/SVG/1.1/DTD/svg11.dtd">
<!-- Creator: CorelDRAW -->
<svg xmlns="http://www.w3.org/2000/svg" xml:space="preserve" width="1.26333in" height="2.02409in" version="1.1" style="shape-rendering:geometricPrecision; text-rendering:geometricPrecision; image-rendering:optimizeQuality; fill-rule:evenodd; clip-rule:evenodd"
viewBox="0 0 39.84 63.83"
 xmlns:xlink="http://www.w3.org/1999/xlink"
 xmlns:xodm="http://www.corel.com/coreldraw/odm/2003">
 <defs>
  <style type="text/css">
   <![CDATA[
    .fil1 {fill:#FF5A0E}
    .fil0 {fill:#FF5A0E;fill-rule:nonzero}
   ]]>
  </style>
 </defs>
 <g id="Layer_x0020_1">
  <metadata id="CorelCorpID_0Corel-Layer"/>
  <g id="_1859118592976">
   <path class="fil0" d="M0.48 14.02c-0.41,-0.19 -0.6,-0.68 -0.41,-1.09 0.19,-0.41 0.68,-0.6 1.09,-0.41l4.09 1.88c0.41,0.19 0.6,0.68 0.41,1.09 -0.19,0.41 -0.68,0.6 -1.09,0.41l-4.09 -1.88z"/>
   <path class="fil0" d="M6.32 5.08c-0.27,-0.37 -0.19,-0.88 0.17,-1.15 0.37,-0.27 0.88,-0.19 1.15,0.17l2.69 3.61c0.27,0.37 0.19,0.88 -0.17,1.15 -0.37,0.27 -0.88,0.19 -1.15,-0.17l-2.69 -3.61z"/>
   <path class="fil0" d="M32.88 4.09c0.27,-0.37 0.79,-0.44 1.15,-0.17 0.37,0.27 0.44,0.79 0.17,1.15l-2.69 3.61c-0.27,0.37 -0.79,0.44 -1.15,0.17 -0.37,-0.27 -0.44,-0.79 -0.17,-1.15l2.69 -3.61z"/>
   <path class="fil0" d="M38.67 12.52c0.41,-0.19 0.9,-0.01 1.09,0.41 0.19,0.41 0.01,0.9 -0.41,1.09l-4.09 1.88c-0.41,0.19 -0.9,0.01 -1.09,-0.41 -0.19,-0.41 -0.01,-0.9 0.41,-1.09l4.09 -1.88z"/>
   <path class="fil0" d="M21.2 4.92c0,0.46 -0.37,0.83 -0.83,0.83 -0.46,0 -0.83,-0.37 -0.83,-0.83l0 -4.09c0,-0.46 0.37,-0.83 0.83,-0.83 0.46,0 0.83,0.37 0.83,0.83l0 4.09z"/>
   <path class="fil1" d="M19.92 11.78c8.34,0 15.1,6.76 15.1,15.1 0,8.19 -5.85,10.24 -7.7,18.5 -0.1,8.17 -14.84,8.11 -14.85,0 -1.77,-8.58 -7.66,-9.75 -7.66,-18.5 0,-8.34 6.76,-15.1 15.1,-15.1z"/>
   <path class="fil0" d="M17.22 52.54c-0.33,0.97 -0.12,1.41 0.36,1.57 0.76,0.26 2.08,0.15 3.43,0.04 1.03,-0.08 2.08,-0.17 3,-0.1 1.82,0.13 3.12,0.79 2.97,2.86 -0.16,2.2 -3.01,2.07 -5.81,1.95 -2.08,-0.09 -4.13,-0.18 -4.17,0.59 -0,0.11 0.45,0.16 1.1,0.19 0.68,0.03 1.54,-0.01 2.39,-0.06 2,-0.11 4.02,-0.21 4.77,0.68 0.91,1.08 0.79,1.89 0.05,2.52 -1.26,1.06 -4.92,1.06 -6.99,1.06l0 0 -0.16 0 0 -1.34 0.16 0 0 0c1.89,0 5.24,0 6.12,-0.75 0.12,-0.1 0.08,-0.29 -0.21,-0.63 -0.32,-0.38 -2.01,-0.29 -3.68,-0.2 -0.89,0.05 -1.77,0.09 -2.52,0.06 -1.43,-0.07 -2.43,-0.45 -2.38,-1.59 0.1,-2.1 2.81,-1.98 5.56,-1.86 2.16,0.09 4.36,0.19 4.42,-0.71 0.07,-1.02 -0.68,-1.35 -1.73,-1.43 -0.82,-0.06 -1.82,0.02 -2.8,0.1 -1.48,0.12 -2.94,0.24 -3.96,-0.11 -1.25,-0.42 -1.85,-1.34 -1.21,-3.26l1.27 0.42z"/>
  </g>
 </g>
</svg>
