<?xml version="1.0" encoding="UTF-8"?>
<!DOCTYPE svg PUBLIC "-//W3C//DTD SVG 1.1//EN" "http://www.w3.org/Graphics/SVG/1.1/DTD/svg11.dtd">
<!-- Creator: CorelDRAW -->
<svg xmlns="http://www.w3.org/2000/svg" xml:space="preserve" width="12.8384in" height="8.98726in" version="1.1" style="shape-rendering:geometricPrecision; text-rendering:geometricPrecision; image-rendering:optimizeQuality; fill-rule:evenodd; clip-rule:evenodd"
viewBox="0 0 881.89 617.35"
 xmlns:xlink="http://www.w3.org/1999/xlink"
 xmlns:xodm="http://www.corel.com/coreldraw/odm/2003">
 <defs>
  <style type="text/css">
   <![CDATA[
    .fil0 {fill:#FEFEFE;fill-rule:nonzero}
    .fil1 {fill:red;fill-rule:nonzero}
   ]]>
  </style>
 </defs>
 <g id="Layer_x0020_1">
  <metadata id="CorelCorpID_0Corel-Layer"/>
  <g id="_2146765920480">
   <path class="fil0" d="M863.45 96.41c-10.16,-37.97 -40,-67.81 -77.97,-77.97 -68.74,-18.44 -344.54,-18.44 -344.54,-18.44 0,0 -275.79,0 -344.54,18.44 -37.97,10.16 -67.8,40 -77.97,77.97 -18.44,68.75 -18.44,212.27 -18.44,212.27 0,0 0,143.52 18.44,212.27 10.16,37.97 40,67.8 77.97,77.96 68.75,18.44 344.54,18.44 344.54,18.44 0,0 275.79,0 344.54,-18.44 37.97,-10.16 67.81,-40 77.97,-77.96 18.44,-68.75 18.44,-212.27 18.44,-212.27 0,0 -0.08,-143.52 -18.44,-212.27z"/>
   <polygon class="fil1" points="352.67,440.96 581.78,308.69 352.67,176.42 "/>
  </g>
 </g>
</svg>
